# xmcd
#
# Track frame offsets:
#	150
#	18728
#	49475
#	62354
#	93113
#	110575
#	133732
#	162786
#	195500
#	232520
#	248158
#	269522
#	288177
#
# Disc length: 4072 seconds
#
# Revision: 1
# Processed by: cddbd v1.5.2PL0 Copyright (c) Steve Scherf et al.
# Submitted via: audiograbber 1.83.01
#
DISCID=ab0fe60d
DTITLE=Joe Bonamassa - The Best Of
DYEAR=2009
DGENRE=Blues Rock
TTITLE0=Never Make Your Move Too Soon
TTITLE1=Burning Hell
TTITLE2=Woke Up Dreaming
TTITLE3=Had To Cry Today
TTITLE4=Cradle Rock
TTITLE5=Bridge To Better Days
TTITLE6=The Ballad Of John Henry
TTITLE7=Last Kiss
TTITLE8=Sloe Gin
TTITLE9=Ball Peen Hammer
TTITLE10=Takin' The Hit
TTITLE11=Highwater Everywhere
TTITLE12=Travellin' South
EXTD=
EXTT0=
EXTT1=
EXTT2=
EXTT3=
EXTT4=
EXTT5=
EXTT6=
EXTT7=
EXTT8=
EXTT9=
EXTT10=
EXTT11=
EXTT12=
PLAYORDER=
